HIERARCHY
ROOT hip
{
	OFFSET 0.000000 0.000000 0.000000 
	CHANNELS 6 Xposition Yposition Zposition Xrotation Zrotation Yrotation
	JOINT abdomen
	{
		OFFSET 0.000000 3.402643 0.000000 
		CHANNELS 3 Xrotation Zrotation Yrotation
		JOINT chest
		{
			OFFSET 0.000000 8.438565 -0.680529 
			CHANNELS 3 Xrotation Zrotation Yrotation
			JOINT neck
			{
				OFFSET 0.000000 10.207942 -0.272212 
				CHANNELS 3 Xrotation Zrotation Yrotation
				JOINT head
				{
					OFFSET 0.000000 3.130431 0.000000 
					CHANNELS 3 Xrotation Zrotation Yrotation
					End Site
					{
						OFFSET 0.000000 3.130435 0.000000 
					}
				}
			}
			JOINT lCollar
			{
				OFFSET 3.470700 6.669187 -0.816635 
				CHANNELS 3 Yrotation Zrotation Xrotation
				JOINT lShldr
				{
					OFFSET 3.198488 0.000000 0.000000 
					CHANNELS 3 Zrotation Yrotation Xrotation
					JOINT lForeArm
					{
						OFFSET 10.139888 0.000000 0.000000 
						CHANNELS 3 Yrotation Zrotation Xrotation
						JOINT lHand
						{
							OFFSET 8.370511 0.000000 0.000000 
							CHANNELS 3 Zrotation Yrotation Xrotation
							End Site
							{
								OFFSET 4.083176 0.000000 0.000000 
							}
						}
					}
				}
			}
			JOINT rCollar
			{
				OFFSET -3.470700 6.669187 -0.816635 
				CHANNELS 3 Yrotation Zrotation Xrotation
				JOINT rShldr
				{
					OFFSET -3.198488 0.000000 0.000000 
					CHANNELS 3 Zrotation Yrotation Xrotation
					JOINT rForeArm
					{
						OFFSET -10.139888 0.000000 0.000000 
						CHANNELS 3 Yrotation Zrotation Xrotation
						JOINT rHand
						{
							OFFSET -8.370511 0.000000 0.000000 
							CHANNELS 3 Zrotation Yrotation Xrotation
							End Site
							{
								OFFSET -4.083176 0.000000 0.000000 
							}
						}
					}
				}
			}
		}
	}
	JOINT lThigh
	{
		OFFSET 5.308129 -1.633274 1.361059 
		CHANNELS 3 Xrotation Zrotation Yrotation
		JOINT lShin
		{
			OFFSET -2.041588 -20.007561 0.000000 
			CHANNELS 3 Xrotation Zrotation Yrotation
			JOINT lFoot
			{
				OFFSET 0.000000 -19.190928 -1.224953 
				CHANNELS 3 Xrotation Yrotation Zrotation
				End Site
				{
					OFFSET 0.000000 -2.449906 4.627600 
				}
			}
		}
	}
	JOINT rThigh
	{
		OFFSET -5.308129 -1.633274 1.361059 
		CHANNELS 3 Xrotation Zrotation Yrotation
		JOINT rShin
		{
			OFFSET 2.041588 -20.007561 0.000000 
			CHANNELS 3 Xrotation Zrotation Yrotation
			JOINT rFoot
			{
				OFFSET 0.000000 -19.190928 -1.224953 
				CHANNELS 3 Xrotation Yrotation Zrotation
				End Site
				{
					OFFSET 0.000000 -2.449906 4.627600 
				}
			}
		}
	}
}
MOTION
Frames: 17
Frame Time: 0.033333
-0.311059 48.949329 -2.049484 0.048829 0.429687 -0.321826 0.000000 0.000000 0.000000 -3.398466 -0.233963 0.170143 5.371365 -0.119717 0.103941 5.517578 -0.029254 0.011343 -0.491847 9.783872 -2.504753 -5.179821 -4.927425 -14.389682 0.049646 -6.435122 15.796229 -3.388323 -5.070881 -3.118726 0.226599 -9.383008 -2.551221 2.481502 -8.159974 -16.812084 -0.891672 2.379142 15.114437 7.254814 0.886185 -3.167737 6.361225 5.845280 5.589914 -1.387000 -3.082635 6.942862 -3.318932 0.098095 -2.937522 7.255042 -9.120264 -9.033010 -1.930241 4.124810 -10.516684 -2.777132 -0.131539 4.795183 
-0.313448 48.937626 -2.054330 0.078127 0.419921 -0.370450 0.000000 0.000000 0.000000 -3.408217 -0.165722 0.195416 5.302703 -0.200817 0.099161 5.468742 -0.126763 -0.002823 -1.341461 9.499415 -2.445265 -4.661086 -3.818486 -13.901804 0.041506 -6.550564 15.221838 -3.257231 -5.308123 -3.117408 0.101807 -9.397314 -2.574586 2.423858 -7.993289 -16.915224 -0.898354 2.404231 14.880792 7.169655 0.832925 -3.173561 6.345033 5.887630 5.664242 -1.396738 -3.141210 7.013497 -3.367410 0.082442 -3.007796 7.211191 -9.115329 -9.012617 -1.943513 4.119370 -10.459435 -2.851163 -0.125281 4.798832 
-0.308162 48.950459 -2.048277 0.000000 0.449219 -0.371094 0.000000 0.000000 0.000000 -3.339853 -0.136487 0.232574 5.312197 -0.261215 0.147043 5.429688 0.000000 -0.058594 -1.289793 9.416229 -2.372766 -4.651595 -3.847871 -13.920638 0.045334 -6.521189 15.523712 -3.323529 -5.526983 -3.103561 -0.011147 -9.636481 -2.511738 2.640481 -7.894772 -16.974310 -0.894100 2.425694 14.549479 6.891735 0.730603 -3.192754 6.492626 5.839648 5.645761 -1.562617 -3.131490 6.965645 -3.223005 0.075793 -2.840272 7.240005 -9.154412 -9.038084 -1.855657 4.099970 -10.461985 -2.781765 -0.125802 4.860834 
-0.314078 48.953354 -2.060532 0.166030 0.761716 -0.456648 0.000000 0.000000 0.000000 -3.466866 -0.360667 0.353881 5.273394 -0.409021 0.282131 5.292962 0.116992 -0.026299 -1.290648 9.390276 -2.492887 -4.844334 -3.799175 -13.823554 0.046614 -6.487471 15.591312 -3.516633 -5.410529 -3.090683 0.024759 -9.903464 -2.633326 2.869483 -7.990604 -17.152548 -0.889793 2.317501 14.858407 6.623723 0.814499 -3.200775 6.432762 5.496233 5.397189 -1.885012 -3.141842 7.231501 -3.004454 0.049580 -2.384931 6.957882 -9.477415 -9.165390 -1.636444 4.083838 -10.317708 -3.006223 -0.143436 4.941394 
-0.316218 48.947571 -2.051019 -0.078128 0.507812 -0.274130 0.000000 0.000000 0.000000 -3.281262 -0.155994 0.253084 5.390391 -0.257885 0.252604 5.283182 0.204734 -0.031409 -1.388574 9.575599 -2.320532 -4.990433 -3.848849 -13.860027 0.034242 -6.492109 15.365994 -3.424183 -5.307606 -3.106733 -0.038516 -9.762125 -2.468009 2.849187 -7.990951 -17.112492 -0.907434 2.336432 14.722488 6.485841 0.836656 -3.200209 6.473719 5.762116 5.537656 -1.386002 -3.073149 6.912768 -3.376713 0.071629 -2.727174 7.391097 -9.179392 -9.102314 -1.970439 4.077495 -10.596248 -2.844317 -0.119513 4.664038 
-0.316722 48.943665 -2.053813 -0.136724 0.478514 -0.303876 0.000000 0.000000 0.000000 -3.222666 -0.136503 0.281123 5.419946 -0.162121 0.211200 5.166015 -0.029244 0.001757 -1.205840 9.653668 -2.274620 -5.019966 -4.054507 -13.928527 0.040265 -6.566017 15.134345 -3.379057 -5.236640 -3.108975 -0.000796 -9.558530 -2.422318 2.693182 -8.000593 -17.172907 -0.917243 2.327471 14.712690 6.553006 0.859714 -3.195605 6.591060 5.810477 5.630419 -1.494881 -3.103193 6.931014 -3.261792 0.077849 -2.945343 7.428881 -9.176684 -9.112544 -1.902748 4.108921 -10.435929 -2.830080 -0.133143 4.911281 
-0.325657 48.940521 -2.067266 -0.078129 0.546874 -0.303480 0.000000 0.000000 0.000000 -3.261734 -0.175497 0.293205 5.400230 -0.254638 0.228017 5.244141 0.009749 -0.000571 -1.161525 9.603908 -2.312826 -5.116896 -4.074422 -13.924330 0.038898 -6.546209 14.986456 -3.371450 -5.197095 -3.119368 -0.006688 -9.617097 -2.451132 2.721121 -8.030557 -17.076990 -0.896245 2.352336 14.625094 6.422818 0.921378 -3.194524 6.506417 5.756945 5.586393 -1.513313 -3.111543 7.039413 -3.248954 0.073406 -2.873166 7.349199 -9.243583 -9.130526 -1.899707 4.123075 -10.397263 -2.907684 -0.147315 4.843417 
-0.341511 48.944794 -2.075596 -0.136725 0.546873 -0.255211 0.000000 0.000000 0.000000 -3.212904 -0.165755 0.233914 5.448939 -0.303380 0.246330 5.224594 0.175476 -0.010360 -1.175697 9.476444 -2.264194 -5.060432 -4.025975 -14.018596 0.044925 -6.451951 15.385669 -3.534577 -5.264811 -3.099805 -0.014365 -9.733249 -2.395894 2.839201 -7.991050 -17.102226 -0.894435 2.370296 14.498750 6.354632 0.917815 -3.199115 6.549003 5.769507 5.616486 -1.523540 -3.121545 6.913938 -3.273446 0.086626 -2.688446 7.350865 -9.206992 -9.115513 -1.815354 4.108015 -10.526903 -2.920164 -0.133597 4.754267 
-0.355354 48.951466 -2.099393 0.097666 0.800780 -0.369592 0.000000 0.000000 0.000000 -3.369207 -0.360704 0.294672 5.341495 -0.508895 0.274194 5.175734 0.302193 -0.027866 -1.065579 9.221625 -2.427123 -4.981887 -3.976403 -13.956336 0.043997 -6.510524 15.386887 -3.246896 -5.317329 -3.118036 -0.000406 -9.920723 -2.543486 3.038060 -7.930748 -17.269358 -0.886797 2.332653 14.624144 6.249529 0.873195 -3.206322 6.447971 5.522812 5.449920 -1.953944 -3.181417 7.149457 -2.870764 0.057768 -2.422767 6.941384 -9.509556 -9.208487 -1.460766 4.122840 -10.256785 -3.087507 -0.143761 4.974116 
-0.371715 48.943035 -2.107864 -0.048831 0.605469 -0.293485 0.000000 0.000000 0.000000 -3.232454 -0.253502 0.219395 5.390489 -0.342507 0.186467 5.273418 0.194983 -0.011345 -1.133306 9.348976 -2.307624 -5.068859 -3.888590 -13.912591 0.044514 -6.525620 15.455501 -3.219718 -5.276695 -3.119913 -0.023155 -9.693629 -2.422163 2.983806 -7.854978 -16.971998 -0.884036 2.510095 13.848793 5.578110 0.642144 -3.241922 6.451989 5.769796 5.598487 -1.572469 -3.160964 6.928102 -3.128610 0.070674 -2.767669 7.224699 -9.246432 -9.089139 -1.796607 4.099176 -10.417803 -2.914811 -0.153015 4.925531 
-0.374610 48.934860 -2.127367 0.156265 0.781247 -0.544611 0.000000 0.000000 0.000000 -3.378989 -0.399695 0.365395 5.234494 -0.412207 0.218364 5.419913 0.136508 -0.046655 -0.988602 9.315651 -2.436076 -5.155858 -3.839912 -13.879007 0.041849 -6.521909 15.211489 -3.462259 -5.153223 -3.113706 0.084348 -9.817603 -2.558208 3.203827 -7.759174 -16.650793 -0.848463 2.816347 11.669826 4.104326 0.092993 -3.330844 6.393770 5.564587 5.475538 -1.922421 -3.169344 7.390669 -2.998513 0.058624 -2.549958 6.761658 -9.484930 -9.133499 -1.362187 4.093236 -10.151031 -3.103389 -0.134509 5.136424 
-0.385053 48.934227 -2.134327 0.087900 0.839843 -0.535678 0.000000 0.000000 0.000000 -3.291125 -0.467977 0.349175 5.215088 -0.446517 0.206322 5.546827 0.321807 -0.075778 -0.981713 9.254838 -2.355217 -5.147779 -3.801389 -13.965986 0.050233 -6.493762 15.046014 -3.544909 -5.255601 -3.099174 0.069465 -9.845313 -2.469945 3.235231 -7.709316 -16.778854 -0.842475 2.773801 11.873627 4.360680 0.224404 -3.313690 6.506670 5.503879 5.426597 -2.070206 -3.150473 7.380301 -2.904623 0.055473 -2.476677 6.790687 -9.524264 -9.149014 -1.276755 4.075665 -10.124493 -3.156713 -0.178745 5.140233 
-0.407455 48.942284 -2.146684 0.019533 0.839844 -0.575742 0.000000 0.000000 0.000000 -3.173948 -0.497283 0.349840 5.136964 -0.480206 0.231895 5.556539 0.468087 -0.093275 -0.882727 9.189553 -2.256733 -5.140965 -3.861175 -14.150616 0.050366 -6.421351 14.956680 -3.611255 -5.298388 -3.094768 0.021309 -9.998835 -2.371822 3.505752 -7.578911 -17.142912 -0.857245 2.690040 12.115265 4.248160 0.140005 -3.321308 6.601295 5.517735 5.504791 -2.148886 -3.191836 7.338647 -2.824120 0.058020 -2.295791 6.850251 -9.466542 -9.082985 -1.342728 4.005305 -10.176544 -3.095537 -0.142890 5.037932 
-0.414503 48.942539 -2.159130 0.087901 0.878905 -0.594205 0.000000 0.000000 0.000000 -3.173962 -0.526535 0.380759 5.058893 -0.504950 0.250678 5.507672 0.546077 -0.117424 -0.735755 9.134383 -2.266526 -5.102601 -4.027463 -14.215876 0.043706 -6.404761 15.209054 -3.667278 -5.350380 -3.090990 -0.037059 -9.996683 -2.377310 3.528159 -7.538451 -17.320652 -0.887822 2.649001 12.153852 4.451626 0.346731 -3.307357 6.491462 5.477206 5.423238 -2.079559 -3.141227 7.439230 -2.873600 0.050578 -2.288640 6.712215 -9.504900 -9.095732 -1.265521 4.024959 -10.220058 -3.104350 -0.142678 4.995951 
-0.412111 48.938129 -2.160011 0.019533 0.810547 -0.653882 0.000000 0.000000 0.000000 -3.164173 -0.477786 0.436568 5.176139 -0.458953 0.209076 5.410082 0.390018 -0.148713 -0.776829 9.194057 -2.251130 -5.128200 -4.006631 -14.002695 0.049003 -6.535971 14.998112 -3.520439 -5.342275 -3.100445 0.014925 -9.930839 -2.367341 3.458925 -7.578027 -17.278393 -0.870115 2.632035 12.260545 4.492688 0.309850 -3.304752 6.515615 5.551286 5.471867 -1.973364 -3.132483 7.442122 -2.879867 0.068335 -2.629409 6.771135 -9.446344 -9.079218 -1.266415 4.036153 -10.181314 -3.098362 -0.144973 5.132047 
-0.416893 48.931835 -2.162855 -0.048832 0.751953 -0.625641 0.000000 0.000000 0.000000 -3.134866 -0.458298 0.396193 5.293536 -0.387443 0.187900 5.312448 0.321734 -0.116157 -0.822336 9.185781 -2.219862 -5.070780 -3.948028 -14.039136 0.050533 -6.510127 15.095143 -3.656404 -5.369342 -3.091622 0.052445 -9.863486 -2.336784 3.418601 -7.559064 -17.217657 -0.867647 2.669438 12.134406 4.515873 0.242652 -3.303484 6.568705 5.623173 5.548504 -1.929459 -3.127254 7.438738 -2.991842 0.060772 -2.612318 6.880652 -9.389714 -9.073346 -1.296826 4.058440 -10.076721 -3.113007 -0.162881 5.103860 
-0.419912 48.937881 -2.164404 -0.019534 0.878906 -0.576471 0.000000 0.000000 0.000000 -3.193526 -0.585028 0.315843 5.361897 -0.467724 0.187048 5.126852 0.438644 -0.046180 -0.830883 9.110097 -2.281934 -5.020944 -3.927753 -13.958656 0.051882 -6.529931 15.241924 -3.568842 -5.354731 -3.097296 0.068934 -9.902713 -2.377114 3.396942 -7.540483 -17.098057 -0.843584 2.732893 11.901550 4.342280 0.203838 -3.314966 6.575025 5.474106 5.421464 -2.071648 -3.123630 7.419027 -2.889581 0.051704 -2.330478 6.801944 -9.506866 -9.117040 -1.220620 4.021262 -10.226157 -3.122495 -0.140702 5.113083 
